# AST/ASF file generated using VICON BodyLanguage
# -----------------------------------------------
:version 1.10
:name VICON
:units
  mass 1.0
  length 0.45
  angle deg
:documentation
   .ast/.asf automatically generated from VICON data using
   VICON BodyBuilder and BodyLanguage model FoxedUp or BRILLIANT.MOD
:root
   order TX TY TZ RX RY RZ
   axis XYZ
   position 0 0 0  
   orientation 0 0 0 
:bonedata
  begin
     id 1 
     name lhipjoint
     direction 0.690799 -0.707083 0.151096 
     length 2.54797 
     axis 0 0 0  XYZ
  end
  begin
     id 2 
     name lfemur
     direction 0.34202 -0.939693 0  
     length 7.21646  
     axis 0 0 20  XYZ
    dof rx ry rz
    limits (-160.0 20.0)
           (-70.0 70.0)
           (-60.0 70.0)
  end
  begin
     id 3 
     name ltibia
     direction 0.34202 -0.939693 0   
     length 8.16759   
     axis 0 0 20   XYZ
    dof rx
    limits (-10.0 170.0)
  end
  begin
     id 4 
     name lfoot
     direction 0.0487203 -0.133858 0.989802   
     length 1.93375   
     axis -90 7.62852e-016 20   XYZ
    dof rx rz
    limits (-45.0 90.0)
           (-70.0 20.0)
  end
  begin
     id 5 
     name ltoes
     direction 1.53453e-011 -4.21783e-011 1   
     length 0.979747   
     axis -90 7.62852e-016 20   XYZ
    dof rx
    limits (-90.0 20.0)
  end
  begin
     id 6 
     name rhipjoint
     direction -0.694693 -0.703425 0.150315   
     length 2.56122  
     axis 0 0 0  XYZ 
  end
  begin
     id 7 
     name rfemur
     direction -0.34202 -0.939693 0   
     length 7.36786   
     axis 0 0 -20   XYZ
    dof rx ry rz
    limits (-160.0 20.0)
           (-70.0 70.0)
           (-70.0 60.0)
  end
  begin
     id 8 
     name rtibia
     direction -0.34202 -0.939693 0   
     length 8.07288   
     axis 0 0 -20   XYZ
    dof rx
    limits (-10.0 170.0)
 end
 begin
     id 9 
     name rfoot
     direction -0.0428397 -0.117701 0.992125   
     length 1.88295  
     axis -90 -7.62852e-016 -20   XYZ
    dof rx rz
    limits (-45.0 90.0)
           (-20.0 70.0)
  end
  begin
     id 10 
     name rtoes
     direction -1.53456e-011 -4.2187e-011 1   
     length 0.955578   
     axis -90 -7.62852e-016 -20   XYZ
    dof rx
    limits (-90.0 20.0)
  end
  begin
     id 11 
     name lowerback
     direction 0.0288145 0.999398 -0.0193241   
     length 1.92149   
     axis 0 0 0   XYZ
    dof rx ry rz
    limits (-20.0 45.0)
           (-30.0 30.0)
           (-30.0 30.0)
  end
  begin
     id 12 
     name upperback
     direction 0.0233784 0.998099 0.0570278   
     length 1.90435   
     axis 0 0 0   XYZ
    dof rx ry rz
    limits (-20.0 45.0)
           (-30.0 30.0)
           (-30.0 30.0)
  end
  begin
     id 13 
     name thorax
     direction 0.0096694 0.997833 0.0650817   
     length 1.9111   
     axis 0 0 0   XYZ
    dof rx ry rz
    limits (-20.0 45.0)
           (-30.0 30.0)
           (-30.0 30.0)
  end
  begin
     id 14 
     name lowerneck
     direction 0.00516803 0.999916 0.0118722   
     length 1.74664   
     axis 0 0 0   XYZ
    dof rx ry rz
    limits (-20.0 45.0)
           (-30.0 30.0)
           (-30.0 30.0)
  end
  begin
     id 15 
     name upperneck
     direction -0.0510851 0.996117 -0.071696   
     length 1.68498   
     axis 0 0 0   XYZ
    dof rx ry rz
    limits (-20.0 45.0)
           (-30.0 30.0)
           (-30.0 30.0)
  end
  begin
     id 16
     name head
     direction -0.019188 0.999436 -0.0275702  
     length 1.83483  
     axis 0 0 0   XYZ
    dof rx ry rz
    limits (-20.0 45.0)
           (-30.0 30.0)
           (-30.0 30.0)
  end
  begin
     id 17 
     name lclavicle
     direction 0.967006 0.248456 -0.0562957  
     length 3.39395  
     axis 0 0 0   XYZ
    dof ry rz
    limits (-20.0 10.0)
           (0.0 20.0)
  end
  begin
     id 18 
     name lhumerus
     direction 1 -4.48962e-011 -5.62711e-019   
     length 5.24318   
     axis 180 -30 -90   XYZ
    dof rx ry rz
    limits (-60.0 90.0)
           (-90.0 90.0)
           (-90.0 90.0)
  end
  begin
     id 19
     name lradius
     direction 1 -4.48966e-011 7.90625e-027   
     length 2.98999   
     axis 180 -30 -90   XYZ
    dof rx
    limits (-10.0 170.0)
  end
  begin
     id 20
     name lwrist
     direction 1 -4.48959e-011 1.61068e-026   
     length 1.49499   
     axis -9.31229e-015 90 90   XYZ
    dof ry
    limits (-180.0 0.0)
 end
  begin
     id 21 
     name lhand
     direction 1 -4.49017e-011 3.22136e-026   
     length 0.726745   
     axis -2.0555e-014 90 90   XYZ
    dof rx rz
    limits (-90.0 90.0)
           (-45.0 45.0)
  end
  begin
     id 22 
     name lfingers
     direction 1 -4.4898e-011 6.44272e-026   
     length 0.58592   
     axis -4.11101e-014 90 90   XYZ
    dof rx
    limits (0.0 90.0)
  end
  begin
     id 23
     name lthumb
     direction 0.707107 -6.34922e-011 0.707107   
     length 0.841268   
     axis -90 45 2.85299e-015   XYZ
    dof rx rz
    limits (-45.0 45.0)
           (-45.0 45.0)
  end
  begin
     id 24 
     name rclavicle
     direction -0.972232 0.230238 0.0419005   
     length 3.40416  
     axis 0 0 0   XYZ 
    dof ry rz
    limits (-10.0 20.0)
           (-20.0 0.0)
  end
  begin
     id 25 
     name rhumerus
     direction -1 -4.48976e-011 2.48487e-027  
     length 5.37045   
     axis 180 30 90   XYZ
    dof rx ry rz
    limits (-90.0 60.0)
           (-90.0 90.0)
           (-90.0 90.0)
  end
  begin
     id 26 
     name rradius
     direction -1 -4.48942e-011 7.87951e-027   
     length 2.92792   
     axis 180 30 90   XYZ
    dof rx
    limits (-10.0 170.0)
  end
  begin
     id 27 
     name rwrist
     direction -1 -4.48969e-011 1.61068e-026   
     length 1.46396   
     axis -9.31229e-015 -90 -90   XYZ
    dof ry
    limits (-180.0 0.0)
  end
  begin
     id 28
     name rhand
     direction -1 -4.49043e-011 3.22136e-026   
     length 0.784497   
     axis -2.0555e-014 -90 -90   XYZ
    dof rx rz
    limits (-90.0 90.0)
           (-45.0 45.0)
  end
  begin
     id 29
     name rfingers
     direction -1 -4.48823e-011 6.44272e-026   
     length 0.632482   
     axis -4.11101e-014 -90 -90   XYZ
    dof rx
    limits (0.0 90.0)
  end
  begin
     id 30
     name rthumb
     direction -0.707107 -6.34923e-011 0.707107   
     length 0.908121   
     axis -90 -45 -2.85299e-015   XYZ
    dof rx rz
    limits (-45.0 45.0)
           (-45.0 45.0)
  end
:hierarchy
  begin
    root lhipjoint rhipjoint lowerback
    lhipjoint lfemur
    lfemur ltibia
    ltibia lfoot
    lfoot ltoes
    rhipjoint rfemur
    rfemur rtibia
    rtibia rfoot
    rfoot rtoes
    lowerback upperback
    upperback thorax
    thorax lowerneck lclavicle rclavicle
    lowerneck upperneck
    upperneck head
    lclavicle lhumerus
    lhumerus lradius
    lradius lwrist
    lwrist lhand lthumb
    lhand lfingers
    rclavicle rhumerus
    rhumerus rradius
    rradius rwrist
    rwrist rhand rthumb
    rhand rfingers
  end

#!OML:ASF E:\Style6\Style6.ASF
:FULLY-SPECIFIED
:DEGREES
1304
root 0.319516 18.0755 -0.667094 39.1625 2.88731 -1.24739
lowerback 16.8568 -1.61782 6.65397
upperback -0.615283 -0.543412 2.56276
thorax -10.2291 -0.528179 -0.836668
lowerneck -2.23899 1.89629 2.35882
upperneck 4.75163 2.67637 -5.03836
head 1.99832 1.25937 -1.94802
rclavicle 1.11319e-014 -9.54166e-015
rhumerus 11.0921 15.2382 -87.3399
rradius 28.0717
rwrist 40.7792
rhand -7.474 4.38716
rfingers 7.12502
rthumb 18.4149 -24.7612
lclavicle 1.11319e-014 -9.54166e-015
lhumerus 13.228 -29.9639 81.6289
lradius 28.5877
lwrist -16.4842
lhand -8.21746 20.6621
lfingers 7.12502
lthumb 17.6996 49.8765
rfemur -46.9845 13.1656 6.95622
rtibia 4.41891
rfoot -2.98773 -33.5047
rtoes 16.95
lfemur -61.0036 -35.4069 22.814
ltibia 15.1399
lfoot -32.0851 46.6925
ltoes 34.9073
1305
root 0.319382 18.0759 -0.667137 39.1783 2.90039 -1.25259
lowerback 16.9571 -1.67922 6.68001
upperback -0.726932 -0.604815 2.54679
thorax -10.4163 -0.565041 -0.84779
lowerneck -2.71851 1.91508 2.43708
upperneck 4.78762 2.6981 -5.10521
head 2.10083 1.26365 -1.98181
rclavicle -1.03368e-014 2.8625e-014
rhumerus 10.9653 15.3566 -87.4602
rradius 28.0386
rwrist 40.7966
rhand -7.45273 4.40613
rfingers 7.12502
rthumb 18.4354 -24.7403
lclavicle -1.03368e-014 2.8625e-014
lhumerus 13.0129 -29.8862 81.6091
lradius 28.6611
lwrist -16.2733
lhand -8.43574 20.7098
lfingers 7.12502
lthumb 17.4895 49.9431
rfemur -46.9989 13.1539 6.97145
rtibia 4.43085
rfoot -3.17489 -33.4976
rtoes 17.3566
lfemur -60.8868 -35.26 22.6171
ltibia 15.1195
lfoot -31.3948 46.7796
ltoes 34.312
1306
root 0.319124 18.0756 -0.66736 39.2074 2.84147 -1.20581
lowerback 17.0574 -1.70469 6.62156
upperback -0.833397 -0.638544 2.51045
thorax -10.5949 -0.584635 -0.840859
lowerneck -3.32709 1.92338 2.49733
upperneck 4.91893 2.70734 -5.15588
head 2.2577 1.25896 -2.00774
rclavicle 1.31198e-014 1.66979e-014
rhumerus 10.8357 15.4862 -87.4948
rradius 28.0767
rwrist 40.8595
rhand -7.42149 4.49843
rfingers 7.12502
rthumb 18.4654 -24.6452
lclavicle 1.31198e-014 1.66979e-014
lhumerus 12.8486 -29.9103 81.5878
lradius 28.7369
lwrist -16.0542
lhand -8.48326 20.9589
lfingers 7.12502
lthumb 17.4438 50.1962
rfemur -47.0424 13.1489 6.8852
rtibia 4.43945
rfoot -3.23412 -33.4926
rtoes 17.5933
lfemur -60.885 -35.2291 22.5464
ltibia 15.0937
lfoot -31.3837 46.7536
ltoes 34.3445
1307
root 0.318914 18.0745 -0.666856 39.2591 2.78832 -1.19052
lowerback 17.1267 -1.70082 6.58949
upperback -0.9453 -0.627508 2.50694
thorax -10.7593 -0.583249 -0.824951
lowerneck -3.97288 1.91044 2.41807
upperneck 5.10316 2.6926 -5.11867
head 2.4341 1.24083 -1.98076
rclavicle 9.93923e-015 1.19271e-015
rhumerus 10.707 15.4454 -87.4856
rradius 28.1017
rwrist 41.2314
rhand -7.55478 4.64448
rfingers 7.12502
rthumb 18.3372 -24.5112
lclavicle 9.93923e-015 1.19271e-015
lhumerus 12.6526 -29.8564 81.6983
lradius 28.8188
lwrist -16.0296
lhand -8.34415 21.0698
lfingers 7.12502
lthumb 17.5777 50.2952
rfemur -47.0884 13.1548 6.82201
rtibia 4.38723
rfoot -3.17506 -33.5173
rtoes 17.4681
lfemur -60.9645 -35.2508 22.6329
ltibia 15.0803
lfoot -31.5788 46.8092
ltoes 34.449
1308
root 0.318575 18.074 -0.665808 39.3084 2.75154 -1.18672
lowerback 17.203 -1.6715 6.60516
upperback -1.06871 -0.571107 2.50883
thorax -10.9389 -0.563596 -0.841542
lowerneck -4.52668 1.84589 2.29641
upperneck 5.22115 2.61091 -5.07604
head 2.56891 1.19069 -1.94704
rclavicle -8.34896e-015 3.57812e-014
rhumerus 10.5681 15.4554 -87.3797
rradius 28.1267
rwrist 41.3984
rhand -7.59787 4.58466
rfingers 7.12502
rthumb 18.2957 -24.5749
lclavicle -8.34896e-015 3.57812e-014
lhumerus 12.4748 -29.8363 81.8826
lradius 28.8887
lwrist -16.0511
lhand -8.10875 20.9762
lfingers 7.12502
lthumb 17.8042 50.1812
rfemur -47.0891 13.1629 6.78547
rtibia 4.26755
rfoot -2.73622 -33.5509
rtoes 16.2591
lfemur -61.0823 -35.3142 22.7954
ltibia 15.0853
lfoot -31.5409 46.9984
ltoes 34.1288
1309
root 0.318397 18.0744 -0.665279 39.3451 2.78279 -1.2812
lowerback 17.3373 -1.67666 6.7324
upperback -1.22207 -0.526664 2.53714
thorax -11.1889 -0.557312 -0.886648
lowerneck -5.01455 1.80301 2.22435
upperneck 5.32928 2.5587 -5.0767
head 2.69249 1.15584 -1.93612
rclavicle -1.23246e-014 1.19271e-014
rhumerus 10.3827 15.6848 -87.3049
rradius 28.1064
rwrist 41.2399
rhand -7.59817 4.4751
rfingers 7.12502
rthumb 18.2954 -24.6845
lclavicle -1.23246e-014 1.19271e-014
lhumerus 12.2045 -29.7455 82.0639
lradius 28.9475
lwrist -16.1221
lhand -7.86335 20.9413
lfingers 7.12502
lthumb 18.0403 50.1246
rfemur -47.0078 13.1941 6.88036
rtibia 4.00873
rfoot -2.15083 -33.6026
rtoes 15.1579
lfemur -61.109 -35.2582 22.909
ltibia 15.1279
lfoot -31.4586 47.0229
ltoes 34.0142
1310
root 0.318089 18.074 -0.665002 39.4083 2.81477 -1.34835
lowerback 17.4439 -1.71295 6.8195
upperback -1.36611 -0.535444 2.55568
thorax -11.4162 -0.57355 -0.906312
lowerneck -5.48989 1.81187 2.23109
upperneck 5.34474 2.56896 -5.11099
head 2.78831 1.15372 -1.94771
rclavicle -7.95139e-016 -6.36111e-015
rhumerus 10.2199 15.9694 -87.2777
rradius 28.1459
rwrist 41.0546
rhand -7.60991 4.50239
rfingers 7.12502
rthumb 18.2841 -24.6583
lclavicle -7.95139e-016 -6.36111e-015
lhumerus 11.9392 -29.537 82.1909
lradius 28.9698
lwrist -16.3662
lhand -7.80733 20.9012
lfingers 7.12502
lthumb 18.0942 50.0796
rfemur -46.9019 13.2039 6.95139
rtibia 3.68122
rfoot -1.93121 -33.6485
rtoes 15.037
lfemur -61.2026 -35.2165 23.0628
ltibia 15.1729
lfoot -31.7287 46.9066
ltoes 34.3638
1311
root 0.317414 18.0726 -0.663098 39.4893 2.7769 -1.36414
lowerback 17.4859 -1.73152 6.81741
upperback -1.47786 -0.552127 2.53527
thorax -11.5691 -0.587431 -0.918933
lowerneck -5.98648 1.80228 2.29777
upperneck 5.2971 2.54576 -5.12996
head 2.86675 1.13713 -1.96616
rclavicle -3.18055e-015 1.55052e-014
rhumerus 10.1388 15.8398 -87.3754
rradius 28.2466
rwrist 41.8591
rhand -7.01712 4.68369
rfingers 7.12502
rthumb 18.8544 -24.4225
lclavicle -3.18055e-015 1.55052e-014
lhumerus 11.8238 -29.5002 82.1608
lradius 28.9657
lwrist -16.4055
lhand -7.98012 20.7965
lfingers 7.12502
lthumb 17.928 49.9902
rfemur -46.7373 13.2306 6.93364
rtibia 3.21546
rfoot -1.89684 -33.6778
rtoes 15.6384
lfemur -61.4108 -35.2933 23.3395
ltibia 15.2302
lfoot -32.5515 46.7936
ltoes 34.9975
1312
root 0.317727 18.0716 -0.660954 39.5615 2.68581 -1.35966
lowerback 17.5708 -1.74693 6.77842
upperback -1.60727 -0.570214 2.49161
thorax -11.767 -0.601834 -0.934643
lowerneck -6.44568 1.78579 2.32053
upperneck 5.22246 2.5125 -5.09856
head 2.92665 1.11708 -1.96029
rclavicle 7.95139e-016 -1.74931e-014
rhumerus 10.0577 15.7661 -87.484
rradius 28.3146
rwrist 42.6247
rhand -6.42296 5.11917
rfingers 7.12502
rthumb 19.4257 -23.9305
lclavicle 7.95139e-016 -1.74931e-014
lhumerus 11.7363 -29.7075 81.9978
lradius 28.9633
lwrist -16.107
lhand -8.15881 20.8211
lfingers 7.12502
lthumb 17.756 50.0304
rfemur -46.6419 13.273 6.85405
rtibia 2.85585
rfoot -1.75689 -33.7049
rtoes 15.9174
lfemur -61.6091 -35.4314 23.6322
ltibia 15.2426
lfoot -33.2808 46.8432
ltoes 35.4462
1313
root 0.318798 18.0711 -0.659592 39.6289 2.652 -1.38959
lowerback 17.6916 -1.79115 6.8049
upperback -1.75798 -0.604422 2.47681
thorax -12.013 -0.62814 -0.949116
lowerneck -6.86745 1.78445 2.37182
upperneck 5.1717 2.50519 -5.17709
head 2.99223 1.10686 -1.99564
rclavicle 4.96962e-015 4.96962e-015
rhumerus 9.94555 16.1646 -87.5109
rradius 28.1597
rwrist 42.1204
rhand -6.30066 5.2461
rfingers 7.12502
rthumb 19.5433 -23.7917
lclavicle 4.96962e-015 4.96962e-015
lhumerus 11.5604 -29.7887 81.909
lradius 28.97
lwrist -15.935
lhand -8.07766 20.8581
lfingers 7.12502
lthumb 17.8341 50.0604
rfemur -46.5874 13.2946 6.83924
rtibia 2.58465
rfoot -1.66144 -33.7717
rtoes 16.144
lfemur -61.8302 -35.5899 24.0317
ltibia 15.2181
lfoot -33.7434 47.0473
ltoes 35.5484
1314
root 0.319344 18.0708 -0.657653 39.6781 2.6103 -1.35934
lowerback 17.7762 -1.82048 6.80691
upperback -1.88315 -0.632247 2.43672
thorax -12.2086 -0.649425 -0.981163
lowerneck -7.20426 1.76737 2.41446
upperneck 5.03075 2.47349 -5.23843
head 3.00931 1.08694 -2.02431
rclavicle -7.35503e-015 -5.96354e-015
rhumerus 9.85274 16.4719 -87.5277
rradius 28.006
rwrist 41.6184
rhand -6.10529 5.01424
rfingers 7.12502
rthumb 19.7311 -24.0043
lclavicle -7.35503e-015 -5.96354e-015
lhumerus 11.4244 -29.7979 81.8883
lradius 28.9374
lwrist -15.9249
lhand -8.0203 20.8164
lfingers 7.12502
lthumb 17.8893 50.0136
rfemur -46.5225 13.2903 6.78039
rtibia 2.37545
rfoot -1.87456 -33.8207
rtoes 16.9104
lfemur -62.0049 -35.7438 24.3061
ltibia 15.1684
lfoot -34.2724 47.1251
ltoes 35.8012
1315
root 0.318565 18.0698 -0.654668 39.7464 2.53 -1.30562
lowerback 17.8022 -1.81929 6.73373
upperback -1.99185 -0.641938 2.40474
thorax -12.3484 -0.655385 -0.968855
lowerneck -7.53134 1.74308 2.42338
upperneck 4.84084 2.43188 -5.27687
head 3.00609 1.06282 -2.03933
rclavicle -9.74045e-015 1.98785e-016
rhumerus 9.77097 16.5319 -87.54
rradius 27.9827
rwrist 41.8015
rhand -6.01769 4.90739
rfingers 7.12502
rthumb 19.8154 -24.1025
lclavicle -9.74045e-015 1.98785e-016
lhumerus 11.3334 -29.701 81.9329
lradius 28.898
lwrist -16.0313
lhand -7.86317 20.627
lfingers 7.12502
lthumb 18.0405 49.8104
rfemur -46.5069 13.2973 6.67479
rtibia 2.22578
rfoot -2.23837 -33.8254
rtoes 18.0415
lfemur -62.1655 -35.8645 24.5126
ltibia 15.1141
lfoot -34.6432 47.2893
ltoes 35.893
1316
root 0.317462 18.0696 -0.651824 39.7623 2.45259 -1.25287
lowerback 17.8926 -1.81897 6.62991
upperback -2.08231 -0.654134 2.37809
thorax -12.5046 -0.659938 -0.931729
lowerneck -7.88951 1.72693 2.54046
upperneck 4.65774 2.39462 -5.39296
head 3.01547 1.03961 -2.10033
rclavicle 1.15295e-014 3.08116e-014
rhumerus 9.64854 16.5062 -87.5917
rradius 27.9945
rwrist 42.2212
rhand -5.40543 5.2026
rfingers 7.12502
rthumb 20.4038 -23.7454
lclavicle 1.15295e-014 3.08116e-014
lhumerus 11.2246 -29.6062 81.9737
lradius 28.8707
lwrist -16.1981
lhand -7.7267 20.4541
lfingers 7.12502
lthumb 18.1718 49.6253
rfemur -46.5131 13.3153 6.5842
rtibia 2.20699
rfoot -2.14539 -33.8035
rtoes 17.8428
lfemur -62.2778 -36.0368 24.7199
ltibia 15.0489
lfoot -35.3833 47.2778
ltoes 36.3661
1317
root 0.317414 18.0697 -0.650701 39.8025 2.41655 -1.25103
lowerback 17.9843 -1.83941 6.60503
upperback -2.18889 -0.672802 2.37387
thorax -12.6825 -0.672538 -0.911519
lowerneck -8.1599 1.71353 2.54056
upperneck 4.39364 2.36362 -5.40295
head 2.97557 1.02302 -2.10309
rclavicle -5.96354e-015 -1.35174e-014
rhumerus 9.55558 16.5774 -87.6275
rradius 27.9435
rwrist 42.4832
rhand -4.87153 5.48074
rfingers 7.12502
rthumb 20.9168 -23.4115
lclavicle -5.96354e-015 -1.35174e-014
lhumerus 11.1306 -29.5661 81.9675
lradius 28.8203
lwrist -16.3163
lhand -7.6511 20.4001
lfingers 7.12502
lthumb 18.2445 49.5645
rfemur -46.5589 13.3259 6.55124
rtibia 2.20023
rfoot -1.91899 -33.7794
rtoes 17.1921
lfemur -62.3479 -36.0955 24.8657
ltibia 14.995
lfoot -35.4218 47.4369
ltoes 36.2859
1318
root 0.317023 18.0692 -0.650548 39.8331 2.41524 -1.25878
lowerback 18.1336 -1.86157 6.61788
upperback -2.31308 -0.677259 2.38301
thorax -12.9151 -0.681908 -0.899653
lowerneck -8.39981 1.69854 2.4694
upperneck 4.14725 2.33669 -5.37079
head 2.93361 1.0089 -2.07858
rclavicle -8.74653e-015 1.33186e-014
rhumerus 9.48074 16.8144 -87.5633
rradius 27.8681
rwrist 42.3023
rhand -5.01088 5.44192
rfingers 7.12502
rthumb 20.783 -23.4651
lclavicle -8.74653e-015 1.33186e-014
lhumerus 11.0905 -29.7525 81.9142
lradius 28.7609
lwrist -16.2193
lhand -7.66588 20.4962
lfingers 7.12502
lthumb 18.2303 49.6619
rfemur -46.6028 13.3237 6.5557
rtibia 2.22348
rfoot -1.86646 -33.7552
rtoes 17.007
lfemur -62.4395 -36.1602 25.0513
ltibia 14.9502
lfoot -35.6214 47.5046
ltoes 36.4642
